# xmcd
#
# Track frame offsets:
#	150
#	18146
#	36659
#	51584
#
# Disc length: 947 seconds
#
# Revision: 0
# Processed by: cddbd v1.5.2PL0 Copyright (c) Steve Scherf et al.
# Submitted via: audiograbber 1.83.01
#
DISCID=3203b104
DTITLE=Mark C. Gage - Hold Close The Nights Mark C. Gage
DYEAR=2000
DGENRE=Country
TTITLE0=Hold Close The Nights
TTITLE1=Angels Plays Guitars
TTITLE2=Love Enough
TTITLE3=Within The Blink Of An Eye
EXTD=
EXTT0=
EXTT1=
EXTT2=
EXTT3=
PLAYORDER=
